<?xml version="1.0" encoding="UTF-8" standalone="no"?>
<svg width="417px" height="386px" viewBox="0 0 417 386" version="1.1" xmlns="http://www.w3.org/2000/svg" xmlns:xlink="http://www.w3.org/1999/xlink" xmlns:sketch="http://www.bohemiancoding.com/sketch/ns">
    <!-- Generator: Sketch 3.0.4 (8053) - http://www.bohemiancoding.com/sketch -->
    <title>Shape</title>
    <desc>Created with Sketch.</desc>
    <defs></defs>
    <g id="Page-1" stroke="none" stroke-width="1" fill="none" fill-rule="evenodd" sketch:type="MSPage">
        <g id="checkmark-white" sketch:type="MSLayerGroup" transform="translate(0.000000, 1.000000)" fill="#FFFFFF">
            <path d="M413.6,45.6 L358.7,2.3 C357,0.9 354.9,-0.1 352.5,-0.1 C350.1,-0.1 347.9,0.9 346.2,2.4 L146.5,259 C146.5,259 68,183.5 65.8,181.3 C63.6,179.1 60.7,175.4 56.3,175.4 C51.9,175.4 49.9,178.5 47.6,180.8 C45.9,182.6 17.9,212 4.1,226.6 C3.3,227.5 2.8,228 2.1,228.7 C0.9,230.4 0.1,232.3 0.1,234.4 C0.1,236.6 0.9,238.4 2.1,240.1 L4.9,242.7 C4.9,242.7 144.2,376.5 146.5,378.8 C148.8,381.1 151.6,384 155.7,384 C159.7,384 163,379.7 164.9,377.8 L414,57.8 C415.2,56.1 416,54.2 416,52 C416,49.5 415,47.4 413.6,45.6 L413.6,45.6 Z" id="Shape" sketch:type="MSShapeGroup"></path>
        </g>
    </g>
</svg>